<?xml version="1.0" standalone="no"?>
<!DOCTYPE svg PUBLIC "-//W3C//DTD SVG 20010904//EN"
 "http://www.w3.org/TR/2001/REC-SVG-20010904/DTD/svg10.dtd">
<svg version="1.0" xmlns="http://www.w3.org/2000/svg"
 width="16.000000pt" height="16.000000pt" viewBox="0 0 16.000000 16.000000"
 preserveAspectRatio="xMidYMid meet">
<metadata>
Created by potrace 1.11, written by Peter Selinger 2001-2013
</metadata>
<g transform="translate(0.000000,16.000000) scale(0.003125,-0.003125)"
fill="#000000" stroke="none">
<path d="M1890 5100 c-144 -30 -271 -91 -378 -179 l-57 -47 -45 13 c-25 8 -60
16 -79 19 -18 3 -43 8 -55 10 -33 7 -170 6 -213 -1 -257 -45 -470 -201 -582
-428 -63 -127 -84 -219 -84 -357 1 -167 50 -318 148 -456 l45 -62 3 -1494 c3
-1359 4 -1499 20 -1563 48 -201 148 -346 305 -441 65 -39 160 -78 219 -88 15
-3 51 -10 78 -15 31 -6 477 -9 1180 -8 1117 3 1131 3 1205 24 252 71 410 213
485 437 42 124 49 197 49 498 1 187 3 218 16 218 435 13 759 342 905 920 24
94 30 124 40 200 3 19 8 58 12 85 9 64 10 313 1 385 -23 192 -95 351 -201 447
-62 56 -144 95 -252 120 -11 2 -64 6 -117 7 -108 4 -259 -19 -345 -52 -29 -11
-54 -19 -54 -19 -1 1 -2 76 -3 167 l-2 165 43 61 c55 78 95 161 124 254 32
100 34 319 5 420 -18 61 -72 189 -85 200 -4 3 -19 25 -35 50 -68 106 -221 225
-356 278 -186 72 -385 72 -568 0 l-52 -21 -58 21 c-141 51 -290 66 -434 43
l-68 -11 -62 46 c-197 146 -461 204 -698 154z m302 -391 c67 -17 157 -69 210
-121 90 -88 114 -101 179 -104 40 -2 79 4 117 18 117 41 253 29 386 -33 105
-49 149 -50 243 -4 102 50 162 65 242 60 245 -13 417 -251 355 -489 -53 -205
-261 -329 -464 -280 -19 5 -71 9 -115 8 -95 0 -170 -29 -228 -87 -128 -129
-145 -297 -72 -712 3 -16 14 -73 25 -125 116 -571 97 -802 -70 -851 -57 -17
-242 -18 -296 -1 -23 6 -56 22 -74 34 -104 71 -121 294 -48 653 11 55 22 111
25 125 2 13 19 101 38 195 68 345 65 502 -9 629 -81 139 -244 197 -408 146
-76 -24 -185 -31 -263 -17 -57 11 -141 52 -200 97 -63 48 -113 70 -162 70 -39
0 -106 -28 -139 -58 -80 -74 -164 -111 -261 -117 -158 -10 -308 79 -377 225
-28 59 -31 74 -31 165 0 93 2 105 32 165 54 108 125 171 233 208 94 33 240 17
317 -33 38 -25 100 -42 142 -39 54 4 94 26 144 81 65 72 99 103 140 129 49 32
131 64 181 71 23 3 42 6 44 8 7 6 125 -5 164 -16z m-412 -1311 c90 -31 173
-45 277 -47 87 -2 125 2 222 25 23 5 23 5 17 -68 -9 -97 -56 -342 -67 -349 -5
-3 -198 -5 -429 -5 l-420 1 0 -80 c-2 -639 1 -1971 5 -2007 17 -166 74 -316
159 -421 l45 -55 -152 4 c-192 3 -218 7 -293 44 -74 36 -115 90 -140 181 -16
59 -17 164 -18 1404 -1 1333 -1 1340 19 1339 11 0 43 -4 70 -8 163 -24 383 20
497 98 l33 23 60 -30 c33 -16 85 -38 115 -49z m1960 -41 c3 -78 -2 -392 -6
-396 -3 -3 -68 -6 -144 -6 l-139 -1 -10 46 c-13 59 -39 219 -47 296 l-6 62
118 -5 c66 -2 137 -1 159 4 59 13 75 13 75 0z m857 -412 c187 -32 162 -683
-41 -1065 -91 -171 -216 -277 -356 -299 -33 -5 -53 -4 -58 3 -5 6 -8 280 -8
608 l1 597 25 26 c66 71 169 119 285 133 68 8 86 8 152 -3z"/>
</g>
</svg>
