<?xml version="1.0" standalone="no"?>
<!DOCTYPE svg PUBLIC "-//W3C//DTD SVG 20010904//EN"
 "http://www.w3.org/TR/2001/REC-SVG-20010904/DTD/svg10.dtd">
<svg version="1.0" xmlns="http://www.w3.org/2000/svg"
 width="700.000000pt" height="700.000000pt" viewBox="0 0 700.000000 700.000000"
 preserveAspectRatio="xMidYMid meet">
<metadata>
Created by potrace 1.11, written by Peter Selinger 2001-2013
</metadata>
<g transform="translate(0.000000,700.000000) scale(0.100000,-0.100000)"
fill="#000000" stroke="none">
<path d="M3298 6995 c-1 -1 -41 -5 -88 -9 -100 -7 -225 -22 -295 -36 -27 -5
-61 -12 -75 -14 -596 -109 -1206 -409 -1660 -817 -126 -114 -178 -166 -331
-335 -107 -118 -286 -370 -386 -545 -158 -274 -309 -656 -369 -932 -20 -90
-53 -272 -59 -322 -4 -33 -9 -69 -11 -80 -18 -95 -25 -522 -12 -690 7 -84 22
-211 34 -280 3 -16 7 -43 9 -59 3 -15 7 -35 9 -45 3 -9 8 -31 11 -49 3 -18 21
-92 39 -165 148 -571 439 -1094 853 -1530 55 -58 65 -61 93 -26 3 4 217 221
475 484 259 262 471 481 473 486 2 5 -27 44 -65 86 -164 184 -303 408 -383
615 -40 102 -97 293 -105 350 -3 24 -8 50 -10 58 -26 99 -36 351 -21 550 9
129 8 123 42 295 79 409 303 801 620 1085 214 192 529 380 879 524 77 32 154
64 172 72 17 8 34 14 38 14 4 0 59 18 122 41 64 22 123 42 132 45 9 2 77 22
151 44 111 33 483 125 580 144 14 3 83 17 154 31 70 14 144 28 163 31 20 3 45
7 56 10 12 2 39 6 62 9 22 3 47 8 55 10 8 3 62 12 120 20 58 9 116 18 130 20
14 2 61 9 106 15 44 6 89 12 100 14 10 2 48 7 84 11 36 4 67 8 70 10 3 1 32 6
65 9 33 4 107 14 165 22 135 19 202 27 218 27 21 0 13 15 -20 38 -18 13 -35
26 -38 29 -10 13 -157 118 -240 172 -313 204 -648 353 -1005 448 -188 50 -279
67 -575 106 -47 6 -526 15 -532 9z"/>
<path d="M5483 5468 l-492 -493 70 -75 c174 -184 313 -405 414 -655 32 -79 68
-190 81 -250 2 -11 6 -31 9 -45 18 -78 37 -195 42 -265 11 -141 6 -361 -11
-465 -3 -14 -7 -43 -10 -65 -8 -66 -44 -223 -72 -314 -149 -491 -452 -876
-922 -1168 -103 -64 -296 -164 -392 -203 -30 -12 -68 -28 -85 -35 -179 -78
-704 -258 -816 -280 -8 -2 -69 -17 -135 -35 -65 -17 -162 -40 -214 -51 -52
-11 -102 -22 -110 -24 -16 -4 -298 -62 -340 -70 -24 -5 -233 -41 -292 -50 -53
-9 -83 -14 -114 -19 -17 -3 -48 -8 -70 -11 -21 -2 -50 -7 -64 -9 -25 -5 -55
-10 -145 -22 -27 -3 -57 -7 -65 -9 -15 -3 -82 -11 -165 -21 -22 -2 -71 -9
-110 -14 -149 -20 -170 -22 -184 -23 -9 0 -5 -7 10 -19 13 -11 31 -25 39 -31
41 -33 181 -137 185 -137 3 0 27 -15 53 -33 178 -124 504 -288 737 -371 79
-28 262 -85 291 -90 10 -2 46 -11 79 -19 65 -17 69 -18 230 -47 198 -35 326
-45 585 -45 188 0 341 8 430 21 144 21 295 48 345 61 33 8 67 16 75 18 109 22
388 117 549 187 121 53 308 148 353 179 14 11 29 19 33 19 13 0 269 175 362
248 180 140 344 294 476 447 33 39 63 72 67 75 3 3 44 55 90 115 332 437 547
915 654 1456 14 70 28 155 32 190 3 35 8 67 10 70 18 30 25 545 11 714 -7 81
-23 206 -31 252 -2 10 -11 59 -21 108 -108 578 -382 1149 -769 1600 -83 98
-176 195 -184 195 -4 0 -228 -222 -499 -492z"/>
<path d="M3320 4280 c-232 -48 -415 -183 -522 -385 -35 -67 -65 -143 -72 -185
-3 -19 -9 -56 -14 -82 -10 -51 -8 -210 2 -268 57 -306 271 -541 573 -631 86
-26 262 -33 360 -14 236 45 449 202 555 409 42 82 57 127 78 225 20 95 20 258
0 331 -7 25 -14 52 -15 60 -14 66 -74 185 -129 255 -55 70 -60 76 -121 124
-193 154 -446 213 -695 161z"/>
</g>
</svg>
