<?xml version="1.0" standalone="no"?>
<!DOCTYPE svg PUBLIC "-//W3C//DTD SVG 20010904//EN"
 "http://www.w3.org/TR/2001/REC-SVG-20010904/DTD/svg10.dtd">
<svg version="1.0" xmlns="http://www.w3.org/2000/svg"
 width="512.000000pt" height="512.000000pt" viewBox="0 0 512.000000 512.000000"
 preserveAspectRatio="xMidYMid meet">
<metadata>
Created by potrace 1.11, written by Peter Selinger 2001-2013
</metadata>
<g transform="translate(0.000000,512.000000) scale(0.100000,-0.100000)"
fill="#000000" stroke="none">
<path d="M2331 5109 c-470 -42 -929 -220 -1320 -512 -124 -92 -396 -364 -488
-488 -486 -650 -641 -1458 -428 -2232 83 -305 229 -600 428 -866 92 -124 364
-396 488 -488 484 -361 1055 -541 1649 -520 1133 41 2114 838 2384 1937 48
198 66 324 73 530 20 592 -159 1156 -520 1639 -92 124 -364 396 -488 488 -519
388 -1145 568 -1778 512z m-120 -615 c77 -23 118 -46 177 -99 l52 -47 48 23
c73 36 171 33 248 -7 l60 -30 40 42 c91 93 204 139 329 131 143 -8 256 -71
336 -187 52 -74 72 -146 72 -251 l0 -87 48 -5 c136 -16 239 -140 239 -286 0
-72 -44 -166 -98 -211 -42 -35 -129 -70 -172 -70 l-30 0 0 -140 0 -140 288 0
c279 0 289 -1 332 -22 26 -14 53 -37 65 -58 19 -34 20 -51 20 -636 l0 -601
-28 -36 c-51 -67 -53 -67 -381 -67 l-295 0 -3 -317 c-3 -307 -4 -320 -26 -368
-42 -91 -112 -146 -208 -165 -42 -8 -274 -10 -799 -8 l-740 3 -51 23 c-63 29
-116 82 -146 147 l-23 50 -3 1311 -2 1312 -38 5 c-57 10 -141 66 -178 120 -99
145 -43 346 118 417 64 28 124 34 185 17 l53 -14 29 51 c93 166 303 253 482
200z"/>
<path d="M3612 2418 l3 -463 181 0 c286 0 268 -28 272 425 2 190 0 365 -3 389
-5 32 -16 54 -40 78 l-33 33 -191 0 -191 0 2 -462z"/>
<path d="M2560 1940 l0 -920 333 0 c382 0 401 3 473 76 77 76 74 42 74 956 l0
808 -440 0 -440 0 0 -920z"/>
</g>
</svg>
